<svg width="41" height="40" viewBox="0 0 41 40" fill="none" xmlns="http://www.w3.org/2000/svg">
<path fill-rule="evenodd" clip-rule="evenodd" d="M10.8732 11.2191C13.2717 8.62098 16.3868 6.99097 20.4631 6.99097C26.984 6.99097 30.6478 11.3272 32.6715 15.6923C34.4503 19.5292 35.0971 23.6568 35.3842 25.4883C35.4216 25.7273 35.453 25.9273 35.4799 26.0823C35.5207 26.3177 35.4991 26.5597 35.4172 26.784C34.6812 28.7992 32.8266 30.2699 30.6936 31.2505C28.5242 32.2478 25.8541 32.8417 23.1154 32.9787C17.7276 33.2483 11.5211 31.7533 8.3287 27.31C7.77943 26.5456 8.06858 26.2514 8.17626 25.992L8.17937 25.9845C8.18119 25.9801 8.18373 25.974 8.18698 25.9663C8.19348 25.9507 8.20281 25.9285 8.21486 25.9001C8.23896 25.8433 8.27396 25.7615 8.31891 25.6583C8.40875 25.4522 8.53869 25.1601 8.70118 24.8111C9.02489 24.1159 9.48372 23.1821 10.0173 22.248C10.5435 21.3267 11.176 20.345 11.8559 19.5908C12.1955 19.214 12.5881 18.8474 13.0279 18.5777C13.4649 18.3097 14.048 18.0778 14.7169 18.1472C16.4034 18.3219 17.4962 19.6217 18.1232 20.3676L18.1368 20.3838C18.1873 20.4438 18.2352 20.5009 18.2808 20.5554C18.568 20.8982 18.7671 21.1358 18.9599 21.3125C18.9989 21.2732 19.0424 21.2272 19.0902 21.1737C19.3998 20.828 19.7673 20.3139 20.1597 19.6895C20.9383 18.4506 21.707 16.952 22.1742 15.9519C22.4926 15.2703 23.3023 14.9763 23.9827 15.2953C24.6632 15.6143 24.9566 16.4255 24.6382 17.1071C24.1408 18.1717 23.3192 19.7774 22.4619 21.1416C22.0363 21.8188 21.5743 22.4809 21.1155 22.9934C20.8869 23.2487 20.6275 23.5028 20.3436 23.7056C20.0795 23.8942 19.6657 24.1317 19.1484 24.1585C18.2523 24.205 17.5812 23.7342 17.1649 23.3608C16.8075 23.0402 16.4614 22.6251 16.1811 22.289C16.1378 22.2371 16.0961 22.187 16.0561 22.1395C15.3654 21.318 14.9369 20.9452 14.5087 20.8681C14.4937 20.8756 14.4736 20.8865 14.4484 20.902C14.3126 20.9852 14.1185 21.1472 13.8749 21.4173C13.3886 21.9569 12.8695 22.742 12.3786 23.6014C11.8951 24.4479 11.4713 25.3089 11.1667 25.9631C11.1088 26.0874 11.0554 26.2038 11.007 26.3107C13.5512 29.2261 18.2753 30.4922 22.9797 30.2568C25.4408 30.1337 27.7604 29.6003 29.5589 28.7735C31.2167 28.0114 32.2678 27.0806 32.7332 26.1468C32.72 26.0643 32.7062 25.9771 32.6917 25.8855C32.3949 24.0129 31.8057 20.295 30.2041 16.8402C28.3944 12.9366 25.4672 9.71627 20.4631 9.71627C17.2188 9.71627 14.8063 10.9726 12.8705 13.0695C10.8903 15.2145 9.39484 18.26 8.1434 21.814C7.8935 22.5237 7.11659 22.8961 6.40813 22.6458C5.69967 22.3954 5.32793 21.6172 5.57784 20.9074C6.87377 17.2271 8.51921 13.769 10.8732 11.2191Z" fill="#737885"/>
</svg>
