<svg width="33" height="32" viewBox="0 0 33 32" fill="none" xmlns="http://www.w3.org/2000/svg">
<path d="M21.2977 13.5788C21.5357 13.8168 21.7674 14.0485 21.9476 14.2608C22.1455 14.4939 22.3583 14.7898 22.4838 15.176C22.6578 15.7116 22.6578 16.2885 22.4838 16.8241C22.3583 17.2104 22.1455 17.5063 21.9476 17.7394C21.7674 17.9517 21.5357 18.1834 21.2977 18.4213L18.7761 20.9429C18.2554 21.4636 17.4112 21.4636 16.8905 20.9429C16.3698 20.4222 16.3698 19.578 16.8905 19.0573L18.6143 17.3334H5.83333C5.09695 17.3334 4.5 16.7365 4.5 16.0001C4.5 15.2637 5.09695 14.6667 5.83333 14.6667H18.6143L16.8905 12.9429C16.3698 12.4222 16.3698 11.578 16.8905 11.0573C17.4112 10.5366 18.2554 10.5366 18.7761 11.0573L21.2977 13.5788Z" fill="#437EF7"/>
<path d="M11.1667 6.93341C11.1667 5.43994 11.1667 4.6932 11.4573 4.12277C11.713 3.62101 12.1209 3.21306 12.6227 2.9574C13.1931 2.66675 13.9399 2.66675 15.4333 2.66675H22.9C24.3935 2.66675 25.1402 2.66675 25.7106 2.9574C26.2124 3.21306 26.6204 3.62101 26.876 4.12277C27.1667 4.6932 27.1667 5.43994 27.1667 6.93341V25.0667C27.1667 26.5602 27.1667 27.307 26.876 27.8774C26.6204 28.3792 26.2124 28.7871 25.7106 29.0428C25.1402 29.3334 24.3935 29.3334 22.9 29.3334H15.4333C13.9399 29.3334 13.1931 29.3334 12.6227 29.0428C12.1209 28.7871 11.713 28.3792 11.4573 27.8774C11.1667 27.307 11.1667 26.5602 11.1667 25.0667V20.0001H13.8333C13.8333 21.0238 14.2238 22.0475 15.0049 22.8285C16.567 24.3906 19.0996 24.3906 20.6617 22.8285L23.2149 20.2753C23.4289 20.0615 23.7282 19.7625 23.9805 19.4652C24.2863 19.105 24.7426 18.5018 25.02 17.6482C25.368 16.577 25.368 15.4232 25.02 14.352C24.7426 13.4983 24.2863 12.8952 23.9805 12.535C23.7281 12.2376 23.4289 11.9386 23.2149 11.7248L20.6617 9.17166C19.0996 7.60956 16.567 7.60956 15.0049 9.17165C14.2238 9.9527 13.8333 10.9764 13.8333 12.0001H11.1667V6.93341Z" fill="#437EF7"/>
</svg>
