<svg width="33" height="32" viewBox="0 0 33 32" fill="none" xmlns="http://www.w3.org/2000/svg">
<path fill-rule="evenodd" clip-rule="evenodd" d="M17.8333 2.66659C17.8333 1.93021 17.2364 1.33325 16.5 1.33325C15.7636 1.33325 15.1667 1.93021 15.1667 2.66659V3.99992C11.4848 3.99992 8.5 6.98469 8.5 10.6666C8.5 14.3485 11.4848 17.3333 15.1667 17.3333V25.3333C12.9575 25.3333 11.1667 23.5424 11.1667 21.3333C11.1667 20.5969 10.5697 19.9999 9.83333 19.9999C9.09695 19.9999 8.5 20.5969 8.5 21.3333C8.5 25.0151 11.4848 27.9999 15.1667 27.9999L15.1667 29.3333C15.1667 30.0696 15.7636 30.6666 16.5 30.6666C17.2364 30.6666 17.8333 30.0696 17.8333 29.3333L17.8333 27.9999C21.5152 27.9999 24.5 25.0151 24.5 21.3333C24.5 17.6514 21.5152 14.6666 17.8333 14.6666V6.66658C20.0425 6.66658 21.8333 8.45745 21.8333 10.6666C21.8333 11.403 22.4303 11.9999 23.1667 11.9999C23.903 11.9999 24.5 11.403 24.5 10.6666C24.5 6.98469 21.5152 3.99992 17.8333 3.99992V2.66659ZM21.8333 21.3333C21.8333 23.5424 20.0425 25.3333 17.8333 25.3333V17.3333C20.0425 17.3333 21.8333 19.1241 21.8333 21.3333ZM11.1667 10.6666C11.1667 8.45745 12.9575 6.66658 15.1667 6.66658V14.6666C12.9575 14.6666 11.1667 12.8757 11.1667 10.6666Z" fill="#437EF7"/>
</svg>
