<svg width="33" height="32" viewBox="0 0 33 32" fill="none" xmlns="http://www.w3.org/2000/svg">
<path d="M2.57596 11.3796C2.09418 12.8322 1.83337 14.3856 1.83337 15.9999C1.83337 21.5391 4.90404 26.3611 9.43599 28.8565L14.7448 16.6889L2.57596 11.3796Z" fill="white"/>
<path d="M3.64349 8.93593L15.1667 13.9636V1.39307C10.1937 1.84121 5.93641 4.77168 3.64349 8.93593Z" fill="white"/>
<path d="M16.5 30.6666C14.8857 30.6666 13.3323 30.4058 11.8796 29.924L17.7107 16.5593C17.7517 16.4708 17.7832 16.377 17.8041 16.2793C17.8262 16.1764 17.8357 16.0727 17.8334 15.9702V1.39307C25.3087 2.0667 31.1667 8.34922 31.1667 15.9999C31.1667 24.1001 24.6002 30.6666 16.5 30.6666Z" fill="white"/>
</svg>
