<svg width="33" height="32" viewBox="0 0 33 32" fill="none" xmlns="http://www.w3.org/2000/svg">
<path d="M16.5 2.66675C11.3453 2.66675 7.16663 6.84542 7.16663 12.0001C7.16663 13.3815 7.4676 14.6962 8.00881 15.8792C8.3459 16.6161 8.72784 17.3403 9.093 18.03L9.13284 18.1052C9.48944 18.7786 9.82899 19.4198 10.1315 20.0648C10.7601 21.4048 11.1666 22.6373 11.1666 23.8809C11.1666 24.6831 11.817 25.3334 12.6192 25.3334H20.3807C21.183 25.3334 21.8333 24.6831 21.8333 23.8809C21.8333 22.6373 22.2398 21.4048 22.8684 20.0648C23.1709 19.4199 23.5105 18.7787 23.867 18.1053L23.9069 18.03C24.2721 17.3403 24.654 16.6161 24.9911 15.8792C25.5323 14.6962 25.8333 13.3815 25.8333 12.0001C25.8333 6.84542 21.6546 2.66675 16.5 2.66675Z" fill="white"/>
<path d="M12.5 26.6667C11.7636 26.6667 11.1666 27.2637 11.1666 28.0001C11.1666 28.7365 11.7636 29.3334 12.5 29.3334H20.5C21.2363 29.3334 21.8333 28.7365 21.8333 28.0001C21.8333 27.2637 21.2363 26.6667 20.5 26.6667H12.5Z" fill="white"/>
</svg>
