<svg width="33" height="32" viewBox="0 0 33 32" fill="none" xmlns="http://www.w3.org/2000/svg">
<path d="M9.83333 9.33325C9.83333 6.38773 12.2211 3.99992 15.1667 3.99992C18.1122 3.99992 20.5 6.38773 20.5 9.33325C20.5 10.0696 21.097 10.6666 21.8333 10.6666C22.5697 10.6666 23.1667 10.0696 23.1667 9.33325C23.1667 4.91497 19.5849 1.33325 15.1667 1.33325C10.7484 1.33325 7.16667 4.91497 7.16667 9.33325C7.16667 10.4686 7.40396 11.552 7.83292 12.5337C8.12775 13.2085 8.91377 13.5165 9.58855 13.2217C10.2633 12.9269 10.5714 12.1409 10.2765 11.4661C9.9919 10.8146 9.83333 10.0942 9.83333 9.33325Z" fill="#437EF7"/>
<path d="M27.07 19.3575L24.5476 30.6666L12.5032 30.6666L11.6758 28.1936C11.1038 26.4841 9.87372 25.071 8.25604 24.2651L5.98919 23.1359C4.7904 22.5387 4.21479 21.1542 4.63862 19.8874C5.15691 18.3383 6.93215 17.6056 8.39808 18.3359L12.5032 20.3809L12.5 9.33325C12.5 7.91309 13.7412 6.66658 15.1667 6.66658C16.5921 6.66658 17.8333 7.81785 17.8333 9.23802V13.3333L23.8109 14.5442C26.0813 14.9212 27.5694 17.1189 27.07 19.3575Z" fill="#437EF7"/>
</svg>
