<svg width="72" height="72" viewBox="0 0 72 72" fill="none" xmlns="http://www.w3.org/2000/svg">
<path fill-rule="evenodd" clip-rule="evenodd" d="M56.5895 9.01733H15.4192C11.8774 9.01733 9.00488 11.886 9.00005 15.4278V56.5375C8.9932 58.2444 9.66645 59.8838 10.871 61.0933C12.0756 62.3027 13.7122 62.9825 15.4192 62.9825H56.5895C58.2949 62.9802 59.9294 62.2994 61.132 61.0902C62.3347 59.881 63.0068 58.2429 63 56.5375V15.4278C62.9951 11.8894 60.1279 9.0221 56.5895 9.01733ZM32.2887 47.8865C32.2864 48.457 32.057 49.0031 31.6511 49.4041C31.2453 49.8051 30.6965 50.0279 30.1259 50.0233H21.1289C19.9521 50.0185 19.0007 49.0632 19.0007 47.8865V21.1115C19.0007 19.9347 19.9521 18.9794 21.1289 18.9747H30.1259C31.3041 18.9794 32.258 19.9333 32.2628 21.1115L32.2887 47.8865ZM53.0512 35.5933C53.0512 36.1646 52.8226 36.712 52.4162 37.1135C52.0098 37.515 51.4596 37.7371 50.8884 37.7303H41.8914C40.7132 37.7254 39.7593 36.7715 39.7546 35.5933V21.1115C39.7593 19.9333 40.7132 18.9794 41.8914 18.9747H50.8884C52.0652 18.9794 53.0166 19.9347 53.0166 21.1115L53.0512 35.5933Z" fill="url(#paint0_linear_1018_714)"/>
<defs>
<linearGradient id="paint0_linear_1018_714" x1="36.026" y1="62.9825" x2="36.026" y2="9.01733" gradientUnits="userSpaceOnUse">
<stop stop-color="#0052CC"/>
<stop offset="1" stop-color="#2684FF"/>
</linearGradient>
</defs>
</svg>
