<svg width="40" height="40" viewBox="0 0 40 40" fill="none" xmlns="http://www.w3.org/2000/svg">
<path d="M24.5352 17.0224C26.314 18.8066 27.7688 21.7281 26.9363 23.464C24.71 28.1059 8.09733 36.248 6.68654 34.8383C5.27575 33.43 13.4364 16.8409 18.0879 14.6171C19.8269 13.786 22.7536 15.2383 24.5423 17.0139C24.5423 17.0139 24.5395 17.0182 24.5352 17.0224Z" fill="#FF8200"/>
<path d="M33.3367 15.0624C33.0483 13.9945 32.3109 12.9152 31.2098 12.7876C29.191 12.5536 26.0099 16.1162 26.2373 16.9614C26.4646 17.8067 30.9598 19.2973 32.6377 18.0932C33.5029 17.472 33.6208 16.1304 33.3367 15.0624ZM27.0897 5.19295C28.5886 5.59856 30.1045 6.62962 30.2835 8.16982C30.6131 10.9949 25.6093 15.4482 24.4216 15.1305C23.2338 14.8128 21.1411 8.52154 22.8332 6.17153C23.7055 4.96036 25.588 4.79584 27.0897 5.19295Z" fill="#43B02A"/>
</svg>
