<svg width="72" height="72" viewBox="0 0 72 72" fill="none" xmlns="http://www.w3.org/2000/svg">
<path d="M46.8225 9L44.3266 32.7994L40.0713 12.734L26.6507 15.5653L30.8651 35.6307L11.5525 39.734L14.9895 55.7371L48.9911 63L56.7653 45.5608L60.4477 10.4362L46.8225 9ZM36.0615 43.5502C35.3659 44.2067 34.4657 44.1246 33.4428 43.7964C32.4608 43.4681 32.0517 42.3191 32.379 40.8419C32.6654 39.7751 33.9338 39.6109 34.6294 39.6109C34.8749 39.6109 35.1204 39.652 35.3659 39.7751C35.816 39.9802 36.5934 40.4316 36.7571 41.0882C37.0026 42.073 36.7571 42.8936 36.0615 43.5502ZM45.9224 44.617C45.3905 45.5198 44.0811 45.6429 42.7309 44.9863C41.8307 44.535 41.8307 43.4681 41.9535 42.7705C41.9944 42.4012 42.1581 42.0319 42.4035 41.7447C42.7309 41.3344 43.2628 40.8009 43.8356 40.8009C44.8585 40.7599 45.6769 41.2112 46.1679 42.0319C46.6589 42.8526 46.4134 43.7553 45.9224 44.617Z" fill="#00CCBC"/>
</svg>
