<svg width="55" height="56" viewBox="0 0 55 56" fill="none" xmlns="http://www.w3.org/2000/svg">
<path fill-rule="evenodd" clip-rule="evenodd" d="M39.8658 29.1395C34.8211 29.1395 30.7316 33.2219 30.7316 38.258C30.7316 43.2938 34.8211 47.3763 39.8658 47.3763C44.9106 47.3763 49 43.2938 49 38.258C49 33.2219 44.9106 29.1395 39.8658 29.1395ZM16.1342 29.1403C11.0896 29.1403 7 33.2219 7 38.258C7 43.2938 11.0896 47.3763 16.1342 47.3763C21.1791 47.3763 25.2689 43.2938 25.2689 38.258C25.2689 33.2219 21.1791 29.1403 16.1342 29.1403ZM37.1341 17.7415C37.1341 22.7777 33.0447 26.8605 28.0001 26.8605C22.9552 26.8605 18.8658 22.7777 18.8658 17.7415C18.8658 12.7063 22.9552 8.62354 28.0001 8.62354C33.0447 8.62354 37.1341 12.7063 37.1341 17.7415Z" fill="#F06A6A"/>
</svg>
