<svg width="56" height="56" viewBox="0 0 56 56" fill="none" xmlns="http://www.w3.org/2000/svg">
<path d="M48.9544 28C48.9544 39.5979 39.5728 49 28.0001 49C16.4275 49 7.0459 39.5979 7.0459 28C7.0459 16.4019 16.4275 7 28.0001 7C39.5728 7 48.9544 16.4019 48.9544 28Z" fill="white"/>
<path d="M28.0001 7C16.4275 7 7.0459 16.4019 7.0459 28C7.0459 36.8967 12.5666 44.4995 20.3614 47.5593C20.1783 45.8978 20.0127 43.3425 20.4341 41.5286C20.8149 39.8897 22.8912 31.0903 22.8912 31.0903C22.8912 31.0903 22.2644 29.8322 22.2644 27.9724C22.2644 25.0524 23.9533 22.8723 26.056 22.8723C27.8438 22.8723 28.7073 24.2175 28.7073 25.8304C28.7073 27.6323 27.5626 30.3261 26.9719 32.8225C26.4782 34.9127 28.0178 36.6172 30.0749 36.6172C33.7991 36.6172 36.662 32.6817 36.662 27.0008C36.662 21.9727 33.0569 18.4572 27.9092 18.4572C21.947 18.4572 18.4474 22.939 18.4474 27.5706C18.4474 29.3755 19.1412 31.3109 20.0069 32.3631C20.1782 32.571 20.2032 32.7532 20.1522 32.9654C19.9932 33.6287 19.6397 35.055 19.5703 35.347C19.4789 35.7314 19.2666 35.813 18.8695 35.6278C16.2524 34.4069 14.6162 30.5723 14.6162 27.4923C14.6162 20.8679 19.4188 14.7842 28.4615 14.7842C35.7305 14.7842 41.3794 19.9754 41.3794 26.9129C41.3794 34.1503 36.826 39.9749 30.506 39.9749C28.3826 39.9749 26.3865 38.8694 25.7032 37.5635C25.7032 37.5635 24.6525 41.573 24.3978 42.5556C23.9247 44.3797 22.6477 46.666 21.7935 48.0609C23.754 48.6693 25.84 49 28.0001 49C39.5728 49 48.9544 39.5979 48.9544 28C48.9544 16.4019 39.5728 7 28.0001 7Z" fill="#E60023"/>
</svg>
