<svg width="57" height="56" viewBox="0 0 57 56" fill="none" xmlns="http://www.w3.org/2000/svg">
<path d="M49.4868 27.1268C49.5453 28.2749 49.4088 29.4037 49.0773 30.5129C48.7653 31.6027 48.2779 32.6536 47.6344 33.5877C46.991 34.5413 46.1915 35.3781 45.2751 36.0592L45.2556 36.0786L36.5008 42.6368L32.1721 45.9062L29.5593 47.8912C29.4033 48.008 29.2343 48.0923 29.0523 48.1442C28.8704 48.2091 28.6819 48.2415 28.4869 48.2415C28.2919 48.2415 28.1034 48.2091 27.9214 48.1442C27.7394 48.0923 27.577 48.008 27.434 47.8912L24.8017 45.9062L20.4925 42.6368L11.7962 36.1176L11.7572 36.0786L11.7182 36.0592C10.8212 35.3781 10.0218 34.5413 9.37836 33.5877C8.71541 32.6536 8.22794 31.6027 7.91597 30.5129C7.60399 29.4037 7.4675 28.2749 7.5065 27.1268C7.565 25.9786 7.79898 24.8499 8.20845 23.7796L8.26694 23.6433L13.98 8.71707C14.006 8.63923 14.0385 8.56787 14.0775 8.50301C14.1165 8.43814 14.162 8.37327 14.214 8.3084C14.266 8.24353 14.318 8.18515 14.37 8.13325C14.435 8.08136 14.5 8.03595 14.565 7.99703C14.7599 7.88027 14.9939 7.80243 15.2279 7.7635C15.4619 7.74404 15.6959 7.78296 15.9104 7.86081C16.1443 7.93865 16.3393 8.07487 16.4953 8.25002C16.6513 8.42516 16.7683 8.63923 16.8268 8.87276L20.6875 20.6853H36.3058L40.1665 8.87276C40.2445 8.63923 40.342 8.42516 40.5175 8.25002C40.6735 8.07487 40.8684 7.93865 41.0829 7.86081C41.3169 7.78296 41.5509 7.74404 41.7849 7.7635C42.0189 7.80243 42.2333 7.88027 42.4478 7.99703C42.5128 8.03595 42.5713 8.08136 42.6233 8.13325C42.6883 8.18515 42.7468 8.24353 42.7988 8.3084L42.9158 8.50301C42.9548 8.56787 42.9938 8.63923 43.0328 8.71707L48.7458 23.6239L48.8043 23.7796C49.2138 24.8499 49.4478 25.9786 49.4868 27.1268Z" fill="#E24329"/>
<path d="M49.4868 27.1268C49.5453 28.2749 49.4087 29.4038 49.0967 30.5131C48.7653 31.6029 48.2779 32.6536 47.6344 33.5877C46.991 34.5413 46.1915 35.3781 45.2751 36.0592L45.2556 36.0786L36.5008 42.6368L28.5063 36.5848L41.0634 27.088C41.6223 26.6599 42.2073 26.2707 42.8182 25.9204C43.4292 25.5571 44.0596 25.2328 44.7096 24.9473C45.3595 24.6489 46.0225 24.3895 46.6984 24.1689C47.3614 23.9484 48.0439 23.7666 48.7458 23.6239L48.8043 23.7796C49.2138 24.8499 49.4478 25.9786 49.4868 27.1268Z" fill="#FC6D26"/>
<path d="M28.5063 36.5848L36.5008 42.6368L32.1721 45.9062L29.5593 47.8912C29.4033 48.008 29.2343 48.0923 29.0523 48.1442C28.8704 48.2091 28.6819 48.2415 28.4869 48.2415C28.2919 48.2415 28.1034 48.2091 27.9214 48.1442C27.7394 48.0923 27.577 48.008 27.434 47.8912L24.8017 45.9062L20.4925 42.6368L28.5063 36.5848Z" fill="#FCA326"/>
<path d="M28.4869 36.5851L20.4925 42.6368L11.7962 36.1176L11.7572 36.0786L11.7182 36.0592C10.8212 35.3781 10.0218 34.5413 9.37836 33.5877C8.71541 32.6536 8.22794 31.6027 7.91597 30.5129C7.60399 29.4037 7.4675 28.2749 7.5065 27.1268C7.565 25.9786 7.79898 24.8499 8.20845 23.7796L8.26694 23.6433C8.95589 23.786 9.63834 23.9617 10.3143 24.1693C10.9902 24.3898 11.6532 24.6493 12.3031 24.9477C12.9401 25.2331 13.564 25.5574 14.175 25.9207C14.7859 26.284 15.3774 26.6732 15.9494 27.0883L28.4869 36.5851Z" fill="#FC6D26"/>
</svg>
