<svg width="56" height="56" viewBox="0 0 56 56" fill="none" xmlns="http://www.w3.org/2000/svg">
<path fill-rule="evenodd" clip-rule="evenodd" d="M40.3658 29.1396C35.3211 29.1396 31.2316 33.222 31.2316 38.2581C31.2316 43.294 35.3211 47.3764 40.3658 47.3764C45.4106 47.3764 49.5 43.294 49.5 38.2581C49.5 33.222 45.4106 29.1396 40.3658 29.1396ZM16.6342 29.1404C11.5896 29.1404 7.5 33.222 7.5 38.2581C7.5 43.294 11.5896 47.3764 16.6342 47.3764C21.6791 47.3764 25.7689 43.294 25.7689 38.2581C25.7689 33.222 21.6791 29.1404 16.6342 29.1404ZM37.6341 17.7416C37.6341 22.7778 33.5447 26.8606 28.5001 26.8606C23.4552 26.8606 19.3658 22.7778 19.3658 17.7416C19.3658 12.7064 23.4552 8.62366 28.5001 8.62366C33.5447 8.62366 37.6341 12.7064 37.6341 17.7416Z" fill="#F06A6A"/>
</svg>
