<svg width="73" height="72" viewBox="0 0 73 72" fill="none" xmlns="http://www.w3.org/2000/svg">
<path d="M63.1039 30.2126C60.5699 18.5624 46.608 11.7115 31.914 14.9066C17.2201 18.1017 7.36558 30.1397 9.89628 41.7866C12.427 53.4334 26.3922 60.291 41.0829 57.0925C55.7735 53.8941 65.6346 41.8727 63.1039 30.2126ZM36.5018 46.7383C34.3791 46.7383 32.3041 46.1085 30.5392 44.9285C28.7743 43.7485 27.3987 42.0714 26.5864 40.1091C25.7741 38.1469 25.5616 35.9877 25.9757 33.9046C26.3898 31.8215 27.4119 29.908 28.9129 28.4062C30.4138 26.9043 32.3261 25.8816 34.408 25.4672C36.4898 25.0529 38.6478 25.2655 40.6088 26.0783C42.5699 26.8911 44.246 28.2675 45.4253 30.0335C46.6046 31.7995 47.234 33.8757 47.234 35.9996C47.234 37.4098 46.9564 38.8062 46.4171 40.1091C45.8778 41.412 45.0872 42.5958 44.0906 43.593C43.094 44.5902 41.9109 45.3812 40.6088 45.9209C39.3067 46.4605 37.9111 46.7383 36.5018 46.7383Z" fill="#008C99"/>
<path d="M38.8801 20.9654C35.8325 20.966 32.8536 21.8709 30.32 23.5655C27.7863 25.2601 25.8118 27.6684 24.646 30.4859C23.4802 33.3033 23.1755 36.4034 23.7704 39.3941C24.3654 42.3848 25.8333 45.1319 27.9884 47.2879C30.1436 49.4439 32.8893 50.9121 35.8784 51.5067C38.8674 52.1014 41.9656 51.7958 44.7811 50.6287C47.5966 49.4616 50.003 47.4854 51.6961 44.9499C53.3892 42.4144 54.2928 39.4334 54.2928 36.3841C54.2928 34.359 53.8942 32.3537 53.1196 30.4828C52.3449 28.6119 51.2096 26.912 49.7783 25.4802C48.3471 24.0484 46.648 22.9128 44.778 22.1381C42.9081 21.3634 40.904 20.9649 38.8801 20.9654ZM36.5051 45.3794C34.651 45.3794 32.8386 44.8293 31.297 43.7986C29.7555 42.7679 28.554 41.303 27.8444 39.5891C27.1349 37.8752 26.9493 35.9892 27.311 34.1697C27.6727 32.3502 28.5655 30.6789 29.8765 29.3671C31.1875 28.0553 32.8578 27.1619 34.6763 26.8C36.4947 26.4381 38.3795 26.6238 40.0924 27.3338C41.8053 28.0437 43.2694 29.2459 44.2994 30.7884C45.3295 32.3309 45.8793 34.1444 45.8793 35.9996C45.8793 38.4867 44.8921 40.872 43.1348 42.6309C41.3775 44.3899 38.9907 45.3785 36.5051 45.3794Z" fill="#70CCD3"/>
</svg>
