<svg width="56" height="56" viewBox="0 0 56 56" fill="none" xmlns="http://www.w3.org/2000/svg">
<path d="M48.9868 27.1268C49.0453 28.2749 48.9088 29.4037 48.5773 30.5129C48.2653 31.6027 47.7779 32.6536 47.1344 33.5877C46.491 34.5413 45.6915 35.3781 44.7751 36.0592L44.7556 36.0786L36.0008 42.6368L31.6721 45.9062L29.0593 47.8912C28.9033 48.008 28.7343 48.0923 28.5523 48.1442C28.3704 48.2091 28.1819 48.2415 27.9869 48.2415C27.7919 48.2415 27.6034 48.2091 27.4214 48.1442C27.2394 48.0923 27.077 48.008 26.934 47.8912L24.3017 45.9062L19.9925 42.6368L11.2962 36.1176L11.2572 36.0786L11.2182 36.0592C10.3212 35.3781 9.52181 34.5413 8.87836 33.5877C8.21541 32.6536 7.72794 31.6027 7.41597 30.5129C7.10399 29.4037 6.9675 28.2749 7.0065 27.1268C7.065 25.9786 7.29898 24.8499 7.70845 23.7796L7.76694 23.6433L13.48 8.71707C13.506 8.63923 13.5385 8.56787 13.5775 8.50301C13.6165 8.43814 13.662 8.37327 13.714 8.3084C13.766 8.24353 13.818 8.18515 13.87 8.13325C13.935 8.08136 14 8.03595 14.065 7.99703C14.2599 7.88027 14.4939 7.80243 14.7279 7.7635C14.9619 7.74404 15.1959 7.78296 15.4104 7.86081C15.6443 7.93865 15.8393 8.07487 15.9953 8.25002C16.1513 8.42516 16.2683 8.63923 16.3268 8.87276L20.1875 20.6853H35.8058L39.6665 8.87276C39.7445 8.63923 39.842 8.42516 40.0175 8.25002C40.1735 8.07487 40.3684 7.93865 40.5829 7.86081C40.8169 7.78296 41.0509 7.74404 41.2849 7.7635C41.5189 7.80243 41.7333 7.88027 41.9478 7.99703C42.0128 8.03595 42.0713 8.08136 42.1233 8.13325C42.1883 8.18515 42.2468 8.24353 42.2988 8.3084L42.4158 8.50301C42.4548 8.56787 42.4938 8.63923 42.5328 8.71707L48.2458 23.6239L48.3043 23.7796C48.7138 24.8499 48.9478 25.9786 48.9868 27.1268Z" fill="#E24329"/>
<path d="M48.9868 27.1268C49.0453 28.2749 48.9087 29.4038 48.5967 30.5131C48.2653 31.6029 47.7779 32.6536 47.1344 33.5877C46.491 34.5413 45.6915 35.3781 44.7751 36.0592L44.7556 36.0786L36.0008 42.6368L28.0063 36.5848L40.5634 27.088C41.1223 26.6599 41.7073 26.2707 42.3182 25.9204C42.9292 25.5571 43.5596 25.2328 44.2096 24.9473C44.8595 24.6489 45.5225 24.3895 46.1984 24.1689C46.8614 23.9484 47.5439 23.7666 48.2458 23.6239L48.3043 23.7796C48.7138 24.8499 48.9478 25.9786 48.9868 27.1268Z" fill="#FC6D26"/>
<path d="M28.0063 36.5848L36.0008 42.6368L31.6721 45.9062L29.0593 47.8912C28.9033 48.008 28.7343 48.0923 28.5523 48.1442C28.3704 48.2091 28.1819 48.2415 27.9869 48.2415C27.7919 48.2415 27.6034 48.2091 27.4214 48.1442C27.2394 48.0923 27.077 48.008 26.934 47.8912L24.3017 45.9062L19.9925 42.6368L28.0063 36.5848Z" fill="#FCA326"/>
<path d="M27.9869 36.5851L19.9925 42.6368L11.2962 36.1176L11.2572 36.0786L11.2182 36.0592C10.3212 35.3781 9.52181 34.5413 8.87836 33.5877C8.21541 32.6536 7.72794 31.6027 7.41597 30.5129C7.10399 29.4037 6.9675 28.2749 7.0065 27.1268C7.065 25.9786 7.29898 24.8499 7.70845 23.7796L7.76694 23.6433C8.45589 23.786 9.13834 23.9617 9.81428 24.1693C10.4902 24.3898 11.1532 24.6493 11.8031 24.9477C12.4401 25.2331 13.064 25.5574 13.675 25.9207C14.2859 26.284 14.8774 26.6732 15.4494 27.0883L27.9869 36.5851Z" fill="#FC6D26"/>
</svg>
