<svg width="73" height="72" viewBox="0 0 73 72" fill="none" xmlns="http://www.w3.org/2000/svg">
<path d="M33.613 13.7767L13.4801 22.1854C12.3606 22.6531 12.3722 24.2585 13.4988 24.7093L33.7155 32.8015C35.4918 33.5126 37.47 33.5126 39.2463 32.8015L59.4634 24.7089C60.5896 24.2585 60.6019 22.6534 59.4817 22.1857L39.3494 13.7764C37.5127 13.0092 35.4497 13.0095 33.613 13.7767Z" fill="#FCB400"/>
<path d="M38.2747 37.2201V57.436C38.2747 58.3973 39.2353 59.0559 40.1207 58.7016L62.6484 49.8755C62.8997 49.775 63.1152 49.6006 63.267 49.3749C63.4189 49.1492 63.5001 48.8827 63.5 48.6099V28.3943C63.5 27.4327 62.5394 26.7743 61.654 27.1286L39.1263 35.9548C38.8751 36.0554 38.6596 36.2298 38.5078 36.4555C38.356 36.6811 38.2748 36.9473 38.2747 37.2201Z" fill="#18BFFF"/>
<path d="M33.0142 38.2625L26.3284 41.5209L25.6496 41.8521L11.5365 48.6778C10.6422 49.1135 9.5 48.4554 9.5 47.4522V28.4782C9.5 28.1153 9.68436 27.802 9.93159 27.5663C10.033 27.4644 10.1481 27.3772 10.2734 27.3075C10.6104 27.1032 11.0915 27.0487 11.5005 27.212L32.9018 35.7713C33.9897 36.207 34.0751 37.7453 33.0142 38.2625Z" fill="#F82B60"/>
<path d="M33.0142 38.2625L26.3284 41.5209L9.93159 27.5663C10.033 27.4644 10.1481 27.3772 10.2734 27.3075C10.6104 27.1032 11.0915 27.0487 11.5005 27.212L32.9018 35.7713C33.9897 36.207 34.0751 37.7453 33.0142 38.2625Z" fill="black" fill-opacity="0.25"/>
</svg>
