<svg width="73" height="72" viewBox="0 0 73 72" fill="none" xmlns="http://www.w3.org/2000/svg">
<path d="M54.411 19.3981C54.3736 19.1254 54.1353 18.9741 53.9376 18.9576C53.7414 18.9411 49.8972 18.8827 49.8972 18.8827C49.8972 18.8827 46.6821 15.7606 46.3645 15.443C46.047 15.1254 45.4267 15.2212 45.1855 15.2932C45.1855 15.2932 44.5818 15.4804 43.5705 15.7935C43.4012 15.2452 43.1525 14.571 42.7974 13.8939C41.6529 11.7096 39.9765 10.5545 37.9509 10.5515H37.9434C37.8026 10.5515 37.6633 10.565 37.5225 10.577C37.4626 10.5051 37.4026 10.4347 37.3397 10.3658C36.4573 9.42193 35.3262 8.962 33.9704 9.00245C31.3546 9.07736 28.7494 10.9665 26.637 14.3224C25.1508 16.6834 24.0197 19.6498 23.6991 21.9464C20.6953 22.8767 18.5949 23.5269 18.5485 23.5419C17.0324 24.0183 16.9844 24.0647 16.7867 25.494C16.6399 26.5741 12.6728 57.2502 12.6728 57.2502L45.9181 63L60.3272 59.4179C60.3272 59.4179 54.4485 19.6708 54.411 19.3981ZM41.9061 16.3089C41.1405 16.5456 40.27 16.8153 39.3262 17.1074C39.3068 15.783 39.1494 13.9403 38.5322 12.3478C40.5173 12.7238 41.494 14.9696 41.9061 16.3089ZM37.5869 17.6467C35.8446 18.186 33.9434 18.7748 32.0363 19.3651C32.5726 17.3111 33.5899 15.2662 34.8393 13.9253C35.3037 13.4265 35.9539 12.8707 36.7239 12.553C37.4475 14.0632 37.6049 16.201 37.5869 17.6467ZM34.0228 10.7433C34.637 10.7298 35.1539 10.8646 35.5959 11.1553C34.8888 11.5223 34.2056 12.0497 33.5644 12.7373C31.9029 14.5201 30.6295 17.2872 30.1216 19.9569C28.5381 20.4467 26.989 20.9277 25.5628 21.3682C26.4632 17.1658 29.9853 10.8601 34.0228 10.7433Z" fill="#95BF47"/>
<path d="M53.9376 18.9576C53.7414 18.9411 49.8972 18.8827 49.8972 18.8827C49.8972 18.8827 46.6821 15.7606 46.3645 15.443C46.2461 15.3246 46.0874 15.2647 45.9195 15.2392L45.921 62.9986L60.3272 59.4179C60.3272 59.4179 54.4485 19.6708 54.411 19.3981C54.3736 19.1254 54.1353 18.9741 53.9376 18.9576Z" fill="#5E8E3E"/>
<path d="M37.9329 26.3675L36.2595 32.6282C36.2595 32.6282 34.3929 31.7787 32.1801 31.918C28.9351 32.1233 28.9006 34.1698 28.9336 34.6837C29.1104 37.4836 36.4767 38.0949 36.8903 44.6538C37.2153 49.8134 34.1531 53.343 29.7411 53.6216C24.4452 53.9557 21.5298 50.8321 21.5298 50.8321L22.6519 46.059C22.6519 46.059 25.5867 48.2733 27.9358 48.125C29.4699 48.0276 30.0182 46.7797 29.9628 45.8972C29.7321 42.2447 23.7335 42.4605 23.3545 36.4589C23.0354 31.4087 26.3523 26.2911 33.6707 25.8296C36.4902 25.6484 37.9329 26.3675 37.9329 26.3675Z" fill="white"/>
</svg>
