<svg width="40" height="40" viewBox="0 0 40 40" fill="none" xmlns="http://www.w3.org/2000/svg">
<path d="M30.7626 5H9.2376C7.7376 5 6.5376 6.2 6.5376 7.7V32.3C6.5376 33.8 7.7376 35 9.2376 35H30.7626C32.2626 35 33.4626 33.8 33.4626 32.3V7.7C33.4626 6.2 32.2626 5 30.7626 5ZM31.9626 32.3C31.9626 32.975 31.4376 33.5 30.7626 33.5H9.2376C8.5626 33.5 8.0376 32.975 8.0376 32.3V7.7C8.0376 7.025 8.5626 6.5 9.2376 6.5H30.7626C31.4376 6.5 31.9626 7.025 31.9626 7.7V32.3ZM13.2876 30.5L16.6626 27.5L13.2876 24.5V30.5ZM25.4376 18.35C24.8376 17.75 23.7126 17 21.8376 17C19.8126 17 17.7126 17.525 16.2126 18.05V9.5H13.2126V22.475L15.3126 21.5C15.3126 21.5 18.7626 19.925 21.7626 19.925C23.2626 19.925 23.6376 20.75 23.6376 21.5V30.5H26.6376V21.5C26.7126 21.275 26.7126 19.625 25.4376 18.35ZM21.4626 14.375H24.4626C25.8126 12.8 26.4876 11.225 26.7126 9.5H23.7126C23.4126 11.225 22.6626 12.8 21.4626 14.375Z" fill="#430098"/>
</svg>
