<svg width="73" height="72" viewBox="0 0 73 72" fill="none" xmlns="http://www.w3.org/2000/svg">
<path d="M47.3224 9L44.8265 32.7994L40.5712 12.734L27.1506 15.5653L31.365 35.6307L12.0524 39.734L15.4894 55.7371L49.491 63L57.2651 45.5608L60.9476 10.4362L47.3224 9ZM36.5614 43.5502C35.8658 44.2067 34.9656 44.1246 33.9427 43.7964C32.9607 43.4681 32.5516 42.3191 32.8789 40.8419C33.1653 39.7751 34.4337 39.6109 35.1293 39.6109C35.3748 39.6109 35.6203 39.652 35.8658 39.7751C36.3159 39.9802 37.0933 40.4316 37.257 41.0882C37.5025 42.073 37.257 42.8936 36.5614 43.5502ZM46.4223 44.617C45.8903 45.5198 44.581 45.6429 43.2308 44.9863C42.3306 44.535 42.3306 43.4681 42.4534 42.7705C42.4943 42.4012 42.6579 42.0319 42.9034 41.7447C43.2308 41.3344 43.7627 40.8009 44.3355 40.8009C45.3584 40.7599 46.1768 41.2112 46.6678 42.0319C47.1588 42.8526 46.9133 43.7553 46.4223 44.617Z" fill="#00CCBC"/>
</svg>
