<svg width="57" height="56" viewBox="0 0 57 56" fill="none" xmlns="http://www.w3.org/2000/svg">
<path d="M28.5 41.2468C28.9408 41.2468 29.3607 41.1419 29.7595 40.9109L34.3571 38.2657C35.2808 37.7408 36.3515 37.5101 37.4221 37.636C43.0063 38.2868 46.9111 39.3364 48.0657 39.6724C48.2967 39.7353 48.5695 39.6514 48.7165 39.4624C48.9055 39.2315 49.1364 38.8536 49.3253 38.3078C49.4933 37.7829 49.5142 37.3421 49.4933 37.0271C49.4723 36.7752 49.3044 36.5443 49.0525 36.4813C47.247 35.9564 39.2486 33.7942 28.5 33.7942C17.7515 33.7942 9.75293 35.9565 7.94758 36.4813C7.69565 36.5443 7.52767 36.7752 7.50674 37.0272C7.4857 37.321 7.50674 37.762 7.67462 38.3078C7.8425 38.8536 8.09453 39.2315 8.28345 39.4624C8.43039 39.6514 8.70336 39.7353 8.93425 39.6723C10.0889 39.3364 14.0146 38.2868 19.5778 37.636C20.6484 37.5101 21.7192 37.7409 22.6428 38.2657L27.2404 40.9109C27.6393 41.1419 28.0801 41.2468 28.5 41.2468ZM20.8375 26.3626C21.0894 26.8034 21.4883 27.0974 21.95 27.2233C22.4118 27.3492 22.8947 27.2863 23.3356 27.0344C23.7764 26.7824 24.0704 26.3836 24.1963 25.9217C24.3223 25.4598 24.2593 24.9771 24.0074 24.5361L19.8717 17.3774C19.7458 17.1465 19.4729 17.0626 19.2209 17.0835C18.8851 17.1046 18.4232 17.2725 17.8774 17.5874C17.3315 17.9023 16.9537 18.2171 16.7648 18.4901C16.6177 18.7001 16.5758 18.9729 16.7017 19.2038L20.8375 26.3626ZM17.0587 31.485C17.4994 31.7369 18.0033 31.7789 18.4442 31.6739C18.906 31.5479 19.3049 31.254 19.5568 30.8131C19.8087 30.3723 19.8508 29.8685 19.7458 29.4276C19.6408 28.9866 19.3259 28.5668 18.8851 28.3149L11.7264 24.1792C11.4954 24.0533 11.2225 24.0953 11.0126 24.2423C10.7397 24.4312 10.4248 24.8091 10.1098 25.3549C9.7949 25.9007 9.62702 26.3626 9.60598 26.6985C9.58494 26.9713 9.69003 27.2234 9.89988 27.3493L17.0587 31.485ZM30.3264 23.8224C30.3264 24.3263 30.1164 24.7881 29.8015 25.1239C29.4656 25.4599 29.0248 25.6488 28.5 25.6488C27.9962 25.6488 27.5344 25.4389 27.1984 25.1239C26.8626 24.7881 26.6735 24.3472 26.6735 23.8224V15.572C26.6735 15.2991 26.8415 15.0892 27.0934 14.9842C27.3873 14.8372 27.8702 14.7533 28.5 14.7533C29.1299 14.7533 29.6126 14.8372 29.9065 14.9842C30.1375 15.1102 30.3264 15.2991 30.3264 15.572V23.8224ZM36.1626 26.3626C35.9106 26.8034 35.5118 27.0974 35.0499 27.2233C34.588 27.3492 34.1052 27.2863 33.6643 27.0344C33.2235 26.7824 32.9296 26.3836 32.8036 25.9217C32.6776 25.4598 32.7406 24.9771 32.9925 24.5361L37.1282 17.3774C37.2542 17.1465 37.5271 17.0626 37.779 17.0835C38.1149 17.1046 38.5767 17.2725 39.1226 17.5874C39.6684 17.9023 40.0463 18.2171 40.2353 18.4901C40.3822 18.7001 40.4242 18.9729 40.2983 19.2038L36.1626 26.3626ZM39.9414 31.485C39.5005 31.7369 38.9967 31.7789 38.5558 31.6739C38.0939 31.5479 37.6951 31.254 37.4431 30.8131C37.1912 30.3723 37.1492 29.8685 37.2542 29.4276C37.3801 28.9658 37.674 28.5668 38.1149 28.3149L45.2737 24.1792C45.5046 24.0533 45.7775 24.0953 45.9874 24.2423C46.2603 24.4312 46.5752 24.8091 46.8901 25.3549C47.205 25.9007 47.3729 26.3626 47.394 26.6985C47.415 26.9713 47.31 27.2234 47.1001 27.3493L39.9414 31.485Z" fill="#0770E3"/>
</svg>
