<svg width="72" height="72" viewBox="0 0 72 72" fill="none" xmlns="http://www.w3.org/2000/svg">
<path d="M15.7174 52.1085C14.5237 52.1111 13.3507 51.7968 12.3182 51.1976C11.2857 50.5985 10.4308 49.7361 9.84073 48.6984C9.25971 47.668 8.96995 46.499 9.00247 45.3165C9.03498 44.1341 9.38857 42.9827 10.0253 41.9858L22.1274 22.9815C22.7468 21.9601 23.6262 21.1215 24.6758 20.5512C25.7254 19.9809 26.9075 19.6994 28.1015 19.7355C29.2945 19.7641 30.4586 20.1091 31.4745 20.7354C32.4904 21.3616 33.3217 22.2465 33.8833 23.2995C35.0114 25.4327 34.8704 27.9993 33.5192 30.0017L21.4249 49.006C20.8115 49.9618 19.9669 50.7472 18.9692 51.2895C17.9715 51.8318 16.853 52.1135 15.7174 52.1085Z" fill="#F62B54"/>
<path d="M36.4755 52.1085C34.0346 52.1085 31.7885 50.8034 30.6091 48.706C30.0294 47.6785 29.7403 46.5125 29.7728 45.3332C29.8053 44.1538 30.1582 43.0055 30.7937 42.0115L42.8727 23.0507C43.4829 22.015 44.3592 21.1614 45.4106 20.5785C46.4619 19.9955 47.6501 19.7045 48.8519 19.7355C51.3133 19.7893 53.544 21.1662 54.6721 23.32C55.7926 25.4737 55.6285 28.0557 54.2363 30.053L42.1599 49.0137C41.5484 49.9654 40.7072 50.7477 39.7137 51.2886C38.7203 51.8295 37.6066 52.1114 36.4755 52.1085Z" fill="#FFCC00"/>
<path d="M56.7695 52.2674C60.2105 52.2674 63 49.5365 63 46.1677C63 42.7989 60.2105 40.068 56.7695 40.068C53.3285 40.068 50.539 42.7989 50.539 46.1677C50.539 49.5365 53.3285 52.2674 56.7695 52.2674Z" fill="#00CA72"/>
</svg>
