<svg width="40" height="40" viewBox="0 0 40 40" fill="none" xmlns="http://www.w3.org/2000/svg">
<path fill-rule="evenodd" clip-rule="evenodd" d="M27.156 19.2616H27.8192C27.9139 18.9774 27.9139 18.5984 27.8192 18.1247C27.6297 17.4615 27.4402 16.9877 27.0612 17.0825C26.6822 17.1772 26.5875 17.651 26.777 18.4089C26.8717 18.6932 27.0612 19.0721 27.156 19.2616Z" fill="#101828"/>
<path fill-rule="evenodd" clip-rule="evenodd" d="M23.6504 19.8301C23.9346 19.9249 24.1241 20.0196 24.2188 19.9249C24.2188 19.9249 24.2188 19.8301 24.2188 19.6406C24.0293 19.3564 23.7451 19.1669 23.4609 18.9774C22.7976 18.6932 22.0397 18.7879 21.4712 19.2616C21.2817 19.4511 21.0922 19.6406 21.0922 19.7354C21.0922 19.7354 21.0922 19.8301 21.187 19.8301C21.3765 19.8301 21.9449 19.5459 22.6082 19.5459C22.9871 19.5459 23.3661 19.6406 23.6504 19.8301Z" fill="#101828"/>
<path fill-rule="evenodd" clip-rule="evenodd" d="M23.0819 20.1143C22.7029 20.2091 22.5134 20.3038 22.3239 20.3986C22.2292 20.4933 22.1344 20.5881 22.1344 20.6828V20.7776H22.2292C22.3239 20.7776 22.5134 20.6828 22.5134 20.6828C23.0819 20.4933 23.3661 20.4933 23.7451 20.5881H24.0293V20.4933C23.9346 20.3038 23.5556 20.1143 23.0819 20.1143Z" fill="#101828"/>
<path fill-rule="evenodd" clip-rule="evenodd" d="M26.019 21.4408C26.3032 21.5355 26.5875 21.5355 26.6822 21.346C26.777 21.1565 26.6822 20.8723 26.398 20.7776C26.1137 20.6828 25.8295 20.6828 25.7348 20.8723C25.64 20.9671 25.7348 21.2513 26.019 21.4408Z" fill="#101828"/>
<path fill-rule="evenodd" clip-rule="evenodd" d="M27.7244 19.9249C27.5349 19.9249 27.3454 20.1143 27.3454 20.4933C27.3454 20.7776 27.5349 21.0618 27.7244 21.0618C27.9139 21.0618 28.1034 20.8723 28.1034 20.4933C28.1034 20.2091 27.9139 19.9249 27.7244 19.9249Z" fill="#101828"/>
<path fill-rule="evenodd" clip-rule="evenodd" d="M13.3231 25.2306C13.2283 25.1359 13.2283 25.2306 13.1336 25.2306C13.0388 25.2306 13.0388 25.2306 12.9441 25.2306C12.7546 25.2306 12.6598 25.1359 12.5651 25.0411C12.4703 24.8516 12.4703 24.6621 12.5651 24.3779C12.5651 24.3779 12.5651 24.2832 12.6598 24.2832C12.8493 23.9042 13.1336 23.241 12.7546 22.6725C12.4703 22.1988 12.0914 21.9145 11.6176 21.8198C11.1439 21.725 10.6702 21.9145 10.3859 22.2935C9.91221 22.7672 9.81746 23.5252 9.91221 23.8094C9.91221 23.9042 10.007 23.9042 10.007 23.9042C10.1017 23.9042 10.1964 23.8094 10.2912 23.6199C10.2912 23.6199 10.2912 23.6199 10.2912 23.5252C10.2912 23.4304 10.3859 23.241 10.4807 23.0515C10.5754 22.862 10.7649 22.7672 11.0492 22.6725C11.2387 22.5777 11.5229 22.6725 11.7124 22.7672C11.9966 22.9567 12.1861 23.4304 11.9966 23.8094C11.9019 23.9989 11.8071 24.3779 11.8071 24.6621C11.9019 25.3254 12.2809 25.5149 12.5651 25.6096C12.9441 25.6096 13.1336 25.4201 13.2283 25.3254C13.4178 25.2306 13.4178 25.2306 13.3231 25.2306Z" fill="#101828"/>
<path d="M33.0302 23.9989C33.0302 23.9989 32.9354 23.6199 32.8407 23.241C32.746 22.862 32.6512 22.5777 32.6512 22.5777C33.1249 21.9145 33.1249 21.2513 33.0302 20.8723C32.9354 20.3986 32.746 20.0196 32.367 19.6406C31.988 19.2616 31.23 18.8826 30.1878 18.5984C30.0931 18.5984 29.7141 18.4089 29.6193 18.4089C29.6193 18.4089 29.6193 17.0825 29.5246 16.514C29.5246 16.135 29.4299 15.4718 29.2404 14.9033C29.0509 14.0506 28.5771 13.3874 28.1034 12.9137C29.5246 11.4925 30.3773 9.88179 30.3773 8.55535C30.3773 5.99721 27.156 5.1445 23.2714 6.75518L22.4187 7.13416L20.9027 5.61823C16.4497 1.73365 2.33254 17.272 6.88034 21.1565L7.8278 22.0093C7.54356 22.6725 7.44882 23.4304 7.54356 24.2832C7.63831 25.3254 8.20678 26.3676 9.0595 27.1255C9.91221 27.8835 10.9544 28.3572 11.9966 28.3572C13.702 32.4313 17.7761 34.8947 22.4187 34.9894C27.4402 35.1789 31.7038 32.8103 33.4092 28.5467C33.5039 28.2625 33.9777 26.936 33.9777 25.7043C34.1671 24.5674 33.5039 23.9989 33.0302 23.9989ZM12.4703 27.2203C12.2809 27.2203 12.1861 27.2203 11.9966 27.2203C10.4807 27.2203 8.87 25.7991 8.68051 24.1884C8.49102 22.3882 9.43848 21.0618 11.0492 20.6828C11.2387 20.6828 11.5229 20.5881 11.7124 20.5881C12.6598 20.6828 13.9863 21.346 14.2705 23.3357C14.5548 25.1359 14.1758 26.936 12.4703 27.2203ZM10.8597 19.6406C9.81746 19.8301 8.96475 20.3986 8.39628 21.1565C8.11204 20.8723 7.44882 20.3986 7.35407 20.1143C6.50136 18.5037 8.30153 15.2823 9.53323 13.4821C12.6598 9.02908 17.5866 5.61823 19.8605 6.28145C20.2395 6.3762 21.4712 7.79738 21.4712 7.79738C21.4712 7.79738 19.1973 9.02908 17.1129 10.8293C14.2705 13.0084 12.0914 16.2298 10.8597 19.6406ZM26.777 26.5571C26.777 26.4623 26.777 26.3676 26.777 26.3676C26.777 26.3676 24.4083 26.7466 22.1344 25.8938C22.4187 25.1359 22.9871 25.4201 24.0293 25.4201C25.8295 25.5149 27.3454 25.2306 28.5771 24.9464C29.6193 24.6621 30.9458 24.0937 31.988 23.241C32.367 23.9989 32.4617 24.8516 32.4617 24.8516C32.4617 24.8516 32.746 24.7569 32.9354 24.9464C33.1249 25.0411 33.3144 25.3254 33.2197 26.0833C33.0302 27.4098 32.4617 28.452 31.5143 29.4942C30.9458 30.1574 30.2826 30.6311 29.4298 31.0101C29.0509 31.1996 28.5771 31.3891 28.1034 31.5786C24.5031 32.7155 20.9027 31.4838 19.7658 28.7362C19.671 28.5467 19.5763 28.3572 19.5763 28.073C19.1026 26.2728 19.4815 24.0937 20.808 22.7672C20.9027 22.6725 20.9975 22.5777 20.9975 22.483C20.9975 22.3882 20.9027 22.2935 20.9027 22.1988C20.429 21.5355 18.8183 20.3986 19.1973 18.1247C19.3868 16.514 20.808 15.3771 22.1344 15.4718H22.4187C22.9871 15.4718 23.4609 15.5665 23.9346 15.5665C24.6926 15.5665 25.4505 15.4718 26.2085 14.8086C26.4927 14.6191 26.6822 14.3348 27.0612 14.3348H27.4402C27.6297 14.3348 27.8192 14.4296 28.0087 14.5243C28.6719 14.9981 28.7666 16.0403 28.7666 16.7982C28.7666 17.272 28.8614 18.3142 28.8614 18.5984C28.8614 19.2616 29.0509 19.4511 29.4298 19.5459C29.6193 19.6406 29.8088 19.6406 30.0931 19.7354C30.9458 20.0196 31.5143 20.2091 31.7985 20.5881C31.988 20.7776 32.0827 20.9671 32.0827 21.2513C32.1775 22.0093 31.5143 22.9567 29.7141 23.8094C27.7244 24.7569 25.261 24.9464 23.6504 24.7569C23.5556 24.7569 23.0819 24.6621 23.0819 24.6621C21.7554 24.4727 20.9975 26.1781 21.7554 27.4098C22.2292 28.1677 23.6504 28.6415 25.0715 28.6415C28.2929 28.6415 30.7563 27.2203 31.7038 26.0833C31.7038 26.0833 31.7038 26.0833 31.7985 25.9886C31.7985 25.8938 31.7985 25.8938 31.7038 25.8938C30.9458 26.3676 27.6297 28.452 24.0293 27.8835C24.0293 27.8835 23.5556 27.7888 23.1766 27.694C22.8924 27.5993 22.2292 27.2203 22.1344 26.5571C24.8821 27.4098 26.777 26.5571 26.777 26.5571ZM16.6392 13.4821C17.7761 12.1557 19.1026 11.1135 20.3343 10.4503C20.3343 10.4503 20.429 10.4503 20.429 10.545C20.3343 10.7345 20.1448 11.1135 20.05 11.3977C20.05 11.3977 20.05 11.4925 20.1448 11.4925C20.9027 11.0187 22.2292 10.4503 23.3661 10.3555C23.4609 10.3555 23.4609 10.4503 23.3661 10.4503C23.1766 10.545 22.9871 10.7345 22.8924 10.924V11.0187C23.7451 11.0187 24.8821 11.303 25.64 11.7767C25.7348 11.7767 25.64 11.8715 25.64 11.8715C24.5031 11.5872 22.6082 11.3977 20.7132 11.8715C18.9131 12.2504 17.5866 12.9137 16.6392 13.4821C16.6392 13.6716 16.5444 13.5769 16.6392 13.4821Z" fill="#101828"/>
</svg>
