<svg width="56" height="56" viewBox="0 0 56 56" fill="none" xmlns="http://www.w3.org/2000/svg">
<path d="M28 41.2467C28.4408 41.2467 28.8607 41.1418 29.2595 40.9108L33.8571 38.2656C34.7808 37.7407 35.8515 37.5099 36.9221 37.6358C42.5063 38.2866 46.4111 39.3363 47.5657 39.6723C47.7967 39.7352 48.0695 39.6513 48.2165 39.4622C48.4055 39.2313 48.6364 38.8535 48.8253 38.3077C48.9933 37.7828 49.0142 37.342 48.9933 37.027C48.9723 36.7751 48.8044 36.5442 48.5525 36.4812C46.747 35.9563 38.7486 33.7941 28 33.7941C17.2515 33.7941 9.25293 35.9564 7.44758 36.4812C7.19565 36.5442 7.02767 36.7751 7.00674 37.0271C6.9857 37.3209 7.00674 37.7619 7.17462 38.3077C7.3425 38.8535 7.59453 39.2313 7.78345 39.4622C7.93039 39.6513 8.20336 39.7352 8.43425 39.6722C9.5889 39.3363 13.5146 38.2866 19.0778 37.6358C20.1484 37.5099 21.2192 37.7408 22.1428 38.2656L26.7404 40.9108C27.1393 41.1418 27.5801 41.2467 28 41.2467ZM20.3375 26.3625C20.5894 26.8032 20.9883 27.0972 21.45 27.2231C21.9118 27.3491 22.3947 27.2862 22.8356 27.0342C23.2764 26.7823 23.5704 26.3834 23.6963 25.9215C23.8223 25.4597 23.7593 24.977 23.5074 24.536L19.3717 17.3773C19.2458 17.1464 18.9729 17.0625 18.7209 17.0834C18.3851 17.1044 17.9232 17.2723 17.3774 17.5873C16.8315 17.9022 16.4537 18.217 16.2648 18.49C16.1177 18.6999 16.0758 18.9728 16.2017 19.2037L20.3375 26.3625ZM16.5587 31.4849C16.9994 31.7368 17.5033 31.7788 17.9442 31.6738C18.406 31.5478 18.8049 31.2539 19.0568 30.813C19.3087 30.3722 19.3508 29.8684 19.2458 29.4275C19.1408 28.9865 18.8259 28.5667 18.3851 28.3148L11.2264 24.1791C10.9954 24.0532 10.7225 24.0952 10.5126 24.2422C10.2397 24.431 9.92477 24.809 9.60983 25.3548C9.2949 25.9006 9.12702 26.3625 9.10598 26.6984C9.08494 26.9712 9.19003 27.2233 9.39988 27.3492L16.5587 31.4849ZM29.8264 23.8223C29.8264 24.3262 29.6164 24.7879 29.3015 25.1238C28.9656 25.4598 28.5248 25.6487 28 25.6487C27.4962 25.6487 27.0344 25.4387 26.6984 25.1238C26.3626 24.7879 26.1735 24.3471 26.1735 23.8223V15.5719C26.1735 15.299 26.3415 15.089 26.5934 14.9841C26.8873 14.8371 27.3702 14.7532 28 14.7532C28.6299 14.7532 29.1126 14.8371 29.4065 14.9841C29.6375 15.1101 29.8264 15.299 29.8264 15.5719V23.8223ZM35.6626 26.3625C35.4106 26.8032 35.0118 27.0972 34.5499 27.2231C34.088 27.3491 33.6052 27.2862 33.1643 27.0342C32.7235 26.7823 32.4296 26.3834 32.3036 25.9215C32.1776 25.4597 32.2406 24.977 32.4925 24.536L36.6282 17.3773C36.7542 17.1464 37.0271 17.0625 37.279 17.0834C37.6149 17.1044 38.0767 17.2723 38.6226 17.5873C39.1684 17.9022 39.5463 18.217 39.7353 18.49C39.8822 18.6999 39.9242 18.9728 39.7983 19.2037L35.6626 26.3625ZM39.4414 31.4849C39.0005 31.7368 38.4967 31.7788 38.0558 31.6738C37.5939 31.5478 37.1951 31.2539 36.9431 30.813C36.6912 30.3722 36.6492 29.8684 36.7542 29.4275C36.8801 28.9657 37.174 28.5667 37.6149 28.3148L44.7737 24.1791C45.0046 24.0532 45.2775 24.0952 45.4874 24.2422C45.7603 24.431 46.0752 24.809 46.3901 25.3548C46.705 25.9006 46.8729 26.3625 46.894 26.6984C46.915 26.9712 46.81 27.2233 46.6001 27.3492L39.4414 31.4849Z" fill="#0770E3"/>
</svg>
