<svg width="73" height="72" viewBox="0 0 73 72" fill="none" xmlns="http://www.w3.org/2000/svg">
<path d="M16.2174 52.1086C15.0237 52.1112 13.8507 51.7969 12.8182 51.1978C11.7857 50.5986 10.9308 49.7362 10.3407 48.6985C9.75971 47.6681 9.46995 46.4991 9.50247 45.3166C9.53498 44.1342 9.88857 42.9828 10.5253 41.986L22.6274 22.9816C23.2468 21.9603 24.1262 21.1216 25.1758 20.5513C26.2254 19.981 27.4075 19.6995 28.6015 19.7356C29.7945 19.7642 30.9586 20.1093 31.9745 20.7355C32.9904 21.3617 33.8217 22.2466 34.3833 23.2996C35.5114 25.4328 35.3704 27.9994 34.0192 30.0019L21.9249 49.0062C21.3115 49.9619 20.4669 50.7473 19.4692 51.2896C18.4715 51.832 17.353 52.1137 16.2174 52.1086Z" fill="#F62B54"/>
<path d="M36.9755 52.1086C34.5346 52.1086 32.2885 50.8035 31.1091 48.7062C30.5294 47.6786 30.2403 46.5126 30.2728 45.3333C30.3053 44.1539 30.6582 43.0056 31.2937 42.0116L43.3727 23.0509C43.9829 22.0151 44.8592 21.1615 45.9106 20.5786C46.9619 19.9956 48.1501 19.7046 49.3519 19.7356C51.8133 19.7895 54.044 21.1663 55.1721 23.3201C56.2926 25.4738 56.1285 28.0558 54.7363 30.0531L42.6599 49.0138C42.0484 49.9655 41.2072 50.7478 40.2137 51.2887C39.2203 51.8296 38.1066 52.1115 36.9755 52.1086Z" fill="#FFCC00"/>
<path d="M57.2695 52.2676C60.7105 52.2676 63.5 49.5366 63.5 46.1678C63.5 42.799 60.7105 40.0681 57.2695 40.0681C53.8285 40.0681 51.039 42.799 51.039 46.1678C51.039 49.5366 53.8285 52.2676 57.2695 52.2676Z" fill="#00CA72"/>
</svg>
