<svg width="72" height="72" viewBox="0 0 72 72" fill="none" xmlns="http://www.w3.org/2000/svg">
<path d="M62.6039 30.2125C60.0699 18.5623 46.108 11.7114 31.414 14.9065C16.7201 18.1016 6.86558 30.1396 9.39628 41.7864C11.927 53.4333 25.8922 60.2908 40.5829 57.0924C55.2735 53.894 65.1346 41.8726 62.6039 30.2125ZM36.0018 46.7382C33.8791 46.7382 31.8041 46.1084 30.0392 44.9284C28.2743 43.7484 26.8987 42.0712 26.0864 40.109C25.2741 38.1468 25.0616 35.9876 25.4757 33.9044C25.8898 31.8213 26.9119 29.9079 28.4129 28.406C29.9138 26.9042 31.8261 25.8814 33.908 25.4671C35.9898 25.0527 38.1478 25.2654 40.1088 26.0782C42.0699 26.891 43.746 28.2674 44.9253 30.0334C46.1046 31.7993 46.734 33.8756 46.734 35.9995C46.734 37.4097 46.4564 38.8061 45.9171 40.109C45.3778 41.4119 44.5872 42.5957 43.5906 43.5929C42.594 44.5901 41.4109 45.3811 40.1088 45.9207C38.8067 46.4604 37.4111 46.7382 36.0018 46.7382Z" fill="#008C99"/>
<path d="M38.3801 20.9653C35.3325 20.9659 32.3536 21.8708 29.82 23.5654C27.2863 25.26 25.3118 27.6683 24.146 30.4858C22.9802 33.3032 22.6755 36.4033 23.2704 39.394C23.8654 42.3847 25.3333 45.1318 27.4884 47.2878C29.6436 49.4438 32.3893 50.9119 35.3784 51.5066C38.3674 52.1013 41.4656 51.7957 44.2811 50.6286C47.0966 49.4615 49.503 47.4853 51.1961 44.9498C52.8892 42.4142 53.7928 39.4333 53.7928 36.3839C53.7928 34.3589 53.3942 32.3536 52.6196 30.4827C51.8449 28.6118 50.7096 26.9119 49.2783 25.4801C47.8471 24.0483 46.148 22.9127 44.278 22.138C42.4081 21.3633 40.404 20.9648 38.3801 20.9653ZM36.0051 45.3793C34.151 45.3793 32.3386 44.8292 30.797 43.7985C29.2555 42.7678 28.054 41.3029 27.3444 39.589C26.6349 37.875 26.4493 35.9891 26.811 34.1696C27.1727 32.3501 28.0655 30.6787 29.3765 29.3669C30.6875 28.0552 32.3578 27.1618 34.1763 26.7999C35.9947 26.438 37.8795 26.6237 39.5924 27.3337C41.3053 28.0436 42.7694 29.2458 43.7994 30.7883C44.8295 32.3308 45.3793 34.1443 45.3793 35.9995C45.3793 38.4866 44.3921 40.8719 42.6348 42.6308C40.8775 44.3898 38.4907 45.3784 36.0051 45.3793Z" fill="#70CCD3"/>
</svg>
