<svg width="25" height="24" viewBox="0 0 25 24" fill="none" xmlns="http://www.w3.org/2000/svg">
<g clip-path="url(#clip0_916_1051)">
<path d="M24.2628 12.2759C24.2628 11.4602 24.1967 10.64 24.0556 9.83752H12.7368V14.4585H19.2185C18.9495 15.9489 18.0853 17.2673 16.8198 18.105V21.1034H20.6868C22.9576 19.0133 24.2628 15.9268 24.2628 12.2759Z" fill="white"/>
<path d="M12.7373 24.0002C15.9737 24.0002 18.7031 22.9375 20.6917 21.1032L16.8247 18.1049C15.7488 18.8368 14.3599 19.2513 12.7417 19.2513C9.61105 19.2513 6.95663 17.1392 6.00421 14.2996H2.01376V17.3906C4.05088 21.4427 8.20006 24.0002 12.7373 24.0002Z" fill="white"/>
<path d="M5.99974 14.3001C5.49707 12.8097 5.49707 11.1959 5.99974 9.70557V6.61462H2.0137C0.311697 10.0054 0.311697 14.0003 2.0137 17.391L5.99974 14.3001Z" fill="white"/>
<path d="M12.7373 4.74948C14.4481 4.72302 16.1016 5.36678 17.3407 6.54848L20.7667 3.12243C18.5973 1.08532 15.718 -0.0346491 12.7373 0.000625561C8.2001 0.000625561 4.05092 2.55804 2.01381 6.61462L5.99985 9.70557C6.94785 6.86155 9.60668 4.74948 12.7373 4.74948Z" fill="white"/>
</g>
<defs>
<clipPath id="clip0_916_1051">
<rect width="24" height="24" fill="white" transform="translate(0.5)"/>
</clipPath>
</defs>
</svg>
